<?xml version="1.0" encoding="UTF-8" standalone="no"?>
<svg width="62px" height="61px" viewBox="0 0 62 61" version="1.1" xmlns="http://www.w3.org/2000/svg" xmlns:xlink="http://www.w3.org/1999/xlink" xmlns:sketch="http://www.bohemiancoding.com/sketch/ns">
    <!-- Generator: Sketch 3.3.1 (12002) - http://www.bohemiancoding.com/sketch -->
    <title>Monogram</title>
    <desc>Created with Sketch.</desc>
    <defs></defs>
    <g id="Welcome-Copy-2" stroke="none" stroke-width="1" fill="none" fill-rule="evenodd" sketch:type="MSPage">
        <g id="Outpost---Desktop" sketch:type="MSArtboardGroup" transform="translate(-689.000000, -1903.000000)" fill="#FFFFFF">
            <g id="Section-Header" sketch:type="MSLayerGroup" transform="translate(0.000000, 1846.000000)">
                <g id="Monogram" transform="translate(689.500000, 57.000000)" sketch:type="MSShapeGroup">
                    <path d="M30.5,57.5536723 C45.4413306,57.5536723 57.5536723,45.4413306 57.5536723,30.5 C57.5536723,15.5586694 45.4413306,3.44632768 30.5,3.44632768 C15.5586694,3.44632768 3.44632768,15.5586694 3.44632768,30.5 C3.44632768,45.4413306 15.5586694,57.5536723 30.5,57.5536723 L30.5,57.5536723 Z M30.5,61 L30.5,61 C13.6553151,61 0,47.3446849 0,30.5 C0,13.6553151 13.6553151,0 30.5,0 C47.3446849,0 61,13.6553151 61,30.5 C61,47.3446849 47.3446849,61 30.5,61 L30.5,61 Z" id="Shape"></path>
                    <path d="M30.5620339,48.0969492 L33.8911864,48.0969492 L33.8911864,16.6871186 L37.4133333,16.6871186 L37.4133333,48.0969492 L40.7424859,48.0969492 L40.7424859,16.6871186 L45.3743503,16.6871186 L45.3743503,13.5027119 L31.5752542,13.5027119 C22.6010169,13.5027119 17.8726554,17.8450847 17.8726554,24.2138983 C17.8726554,31.0169492 23.2764972,34.8768362 30.5620339,34.9250847 L30.5620339,48.0969492 Z" id="p-8" transform="translate(32.419605, 30.799831) scale(-1, 1) translate(-32.419605, -30.799831) "></path>
                </g>
            </g>
        </g>
    </g>
</svg>