<?xml version="1.0" encoding="UTF-8" standalone="no"?>
<svg width="54px" height="55px" viewBox="0 0 54 55" version="1.1" xmlns="http://www.w3.org/2000/svg" xmlns:xlink="http://www.w3.org/1999/xlink" xmlns:sketch="http://www.bohemiancoding.com/sketch/ns">
    <!-- Generator: Sketch 3.2.2 (9983) - http://www.bohemiancoding.com/sketch -->
    <title>Stroke 193</title>
    <desc>Created with Sketch.</desc>
    <defs></defs>
    <g id="Welcome" stroke="none" stroke-width="1" fill="none" fill-rule="evenodd" sketch:type="MSPage">
        <g id="KPCC-for-iPhone---Desktop" sketch:type="MSArtboardGroup" transform="translate(-693.000000, -7595.000000)" stroke="#534FEF" stroke-width="2" stroke-linejoin="round">
            <g id="Section-Herald---Prototyping" sketch:type="MSLayerGroup" transform="translate(0.000000, 7533.000000)">
                <g id="Section-Heading-2" transform="translate(612.000000, 63.000000)" sketch:type="MSShapeGroup">
                    <path d="M99.4752215,40.1090219 L121.351338,17.8062679 C124.663933,19.2410017 128.635256,18.5880139 131.337849,15.8289103 C134.037736,13.0790037 134.680222,9.19786466 133.277941,5.82256127 L128.924014,11.0372671 L123.508901,11.0372671 L123.508901,5.16957342 L128.455685,0.736613661 C125.138578,-0.698120205 121.164548,-0.0359353437 118.464662,2.71397123 C115.764776,5.46387781 115.120485,9.51056307 116.52096,12.8950635 L94.6493554,35.1886205 C91.336761,33.7538866 87.3627307,34.4160715 84.6619421,37.165978 C81.9629582,39.9158846 81.3177648,43.9717669 82.7200453,47.3470703 L87.0748751,42.3071077 L92.828376,42.3071077 L92.828376,47.8253149 L87.7164591,52.2674717 C91.0308582,53.6930085 94.9182612,53.0400207 97.6181474,50.2809171 C100.319838,47.5310105 100.878404,43.4843252 99.4752215,40.1090219 L99.4752215,40.1090219 Z M107.998091,21.5770428 L99.4752215,12.8950635 C100.878404,9.51056307 100.235016,5.46387781 97.5333248,2.71397123 C94.8334385,-0.0359353437 91.0308582,-0.698120205 87.7164591,0.736613661 L92.828376,5.16957342 L92.828376,11.0372671 L87.0748751,11.0372671 L82.7200453,5.82256127 C81.3177648,9.19786466 81.9629582,13.1617768 84.6619421,15.9208804 C87.3627307,18.670787 91.336761,19.2869868 94.6493554,17.8522529 L103.173127,26.5158382 L107.998091,21.5770428 Z M107.998091,31.4178456 L116.52457,40.1090219 C115.121387,43.4843252 115.764776,47.5310105 118.466467,50.2901141 C121.166353,53.0400207 125.139481,53.6930085 128.456587,52.2674717 L123.508901,47.8253149 L123.508901,42.3071077 L128.924014,42.3071077 L133.279746,47.3470703 C134.682027,43.9717669 134.037736,39.9158846 131.337849,37.165978 C128.637963,34.4160715 124.663933,33.7538866 121.351338,35.1886205 L112.828469,26.4974442 L107.998091,31.4178456 Z" id="Stroke-193"></path>
                </g>
            </g>
        </g>
    </g>
</svg>
