<?xml version="1.0" encoding="UTF-8" standalone="no"?>
<svg width="56px" height="61px" viewBox="0 0 56 61" version="1.1" xmlns="http://www.w3.org/2000/svg" xmlns:xlink="http://www.w3.org/1999/xlink" xmlns:sketch="http://www.bohemiancoding.com/sketch/ns">
    <!-- Generator: Sketch 3.2.2 (9983) - http://www.bohemiancoding.com/sketch -->
    <title>Compass Icon</title>
    <desc>Created with Sketch.</desc>
    <defs></defs>
    <g id="Welcome" stroke="none" stroke-width="1" fill="none" fill-rule="evenodd" sketch:type="MSPage">
        <g id="KPCC-for-iPhone---Desktop" sketch:type="MSArtboardGroup" transform="translate(-692.000000, -1448.000000)" stroke="#FFFFFF" stroke-width="2">
            <g id="Section-Heading" sketch:type="MSLayerGroup" transform="translate(629.000000, 1449.000000)">
                <g id="Compass-Icon" transform="translate(64.000000, 0.000000)" sketch:type="MSShapeGroup">
                    <ellipse id="Oval" cx="26.8029474" cy="32.1147302" rx="26.8029474" ry="26.4956825"></ellipse>
                    <path d="M31.2631579,36.5238095 L38.8421053,18.7301587 L20.8421053,26.2222222 L14.2105263,43.0793651 L31.2631579,36.5238095 Z" id="Shape"></path>
                    <path d="M20.8421053,26.2222222 L31.2631579,36.5238095" id="Shape"></path>
                    <path d="M31.1684211,5.61904762 C31.23,5.31655556 31.2631579,5.0028254 31.2631579,4.68253968 C31.2631579,2.09684127 29.142,0 26.5263158,0 C23.9106316,0 21.7894737,2.09684127 21.7894737,4.68253968 C21.7894737,5.0028254 21.8226316,5.31655556 21.8842105,5.61904762" id="Shape"></path>
                    <path d="M26.5263158,5.61904762 L26.5263158,10.3015873" id="Shape"></path>
                    <path d="M26.5263158,53.3809524 L26.5263158,58.0634921" id="Shape"></path>
                    <path d="M53.0526316,31.8412698 L48.3157895,31.8412698" id="Shape"></path>
                    <path d="M4.73684211,31.8412698 L0,31.8412698" id="Shape"></path>
                </g>
            </g>
        </g>
    </g>
</svg>