<?xml version="1.0" encoding="UTF-8" standalone="no"?>
<svg width="61px" height="61px" viewBox="0 0 61 61" version="1.1" xmlns="http://www.w3.org/2000/svg" xmlns:xlink="http://www.w3.org/1999/xlink" xmlns:sketch="http://www.bohemiancoding.com/sketch/ns">
    <!-- Generator: Sketch 3.2.2 (9983) - http://www.bohemiancoding.com/sketch -->
    <title>Target Icon 2</title>
    <desc>Created with Sketch.</desc>
    <defs></defs>
    <g id="Welcome" stroke="none" stroke-width="1" fill="none" fill-rule="evenodd" sketch:type="MSPage">
        <g id="KPCC-for-iPhone---Desktop" sketch:type="MSArtboardGroup" transform="translate(-696.000000, -4292.000000)" stroke="#534FEF" stroke-width="2" stroke-linecap="round" stroke-linejoin="round">
            <g id="Section-Herald---Design" sketch:type="MSLayerGroup" transform="translate(0.000000, 4187.000000)">
                <g id="Target-Icon-2" transform="translate(697.000000, 106.000000)" sketch:type="MSShapeGroup">
                    <path d="M22.3830508,36.6122034 L52.8915254,6.10372881 L22.3830508,36.6122034 Z" id="Path"></path>
                    <path d="M58.9932203,6.10372881 C58.9932203,6.10372881 51.9640678,27.5481356 41.7050847,17.2901695 C31.4481356,7.03220339 52.8915254,0.0020338983 52.8915254,0.0020338983 L52.8915254,6.10372881 L58.9932203,6.10372881 Z" id="Path"></path>
                    <path d="M46.7898305,12.2054237 L46.7898305,2.68983051 L46.7898305,12.2054237 Z" id="Path"></path>
                    <path d="M47.4089056,11.9564784 L56.4089056,11.9564784 L47.4089056,11.9564784 Z" id="Path-2"></path>
                    <path d="M0.0101694915,58.9850847 L6.56338983,52.4328814 L0.0101694915,58.9850847 Z" id="Path"></path>
                    <path d="M38.2027119,52.4328814 L44.7559322,58.9850847 L38.2027119,52.4328814 Z" id="Path"></path>
                    <path d="M44.7559322,36.6122034 C44.7559322,48.9681356 34.74,58.9850847 22.3830508,58.9850847 C10.0271186,58.9850847 0.0101694915,48.9681356 0.0101694915,36.6122034 C0.0101694915,24.2562712 10.0271186,14.239322 22.3830508,14.239322 C34.74,14.239322 44.7559322,24.2562712 44.7559322,36.6122034 L44.7559322,36.6122034 Z" id="Path"></path>
                    <path d="M36.620339,36.6122034 C36.620339,44.4752542 30.2461017,50.8494915 22.3830508,50.8494915 C14.52,50.8494915 8.14576271,44.4752542 8.14576271,36.6122034 C8.14576271,28.7491525 14.52,22.3749153 22.3830508,22.3749153 C30.2461017,22.3749153 36.620339,28.7491525 36.620339,36.6122034 L36.620339,36.6122034 Z" id="Path"></path>
                    <path d="M28.4847458,36.6122034 C28.4847458,39.9813559 25.7532203,42.7138983 22.3830508,42.7138983 C19.0138983,42.7138983 16.2813559,39.9813559 16.2813559,36.6122034 C16.2813559,33.2420339 19.0138983,30.5105085 22.3830508,30.5105085 C25.7532203,30.5105085 28.4847458,33.2420339 28.4847458,36.6122034 L28.4847458,36.6122034 Z" id="Path"></path>
                    <path d="M23.4,36.6122034 C23.4,37.1745763 22.9454237,37.6291525 22.3830508,37.6291525 C21.820678,37.6291525 21.3661017,37.1745763 21.3661017,36.6122034 C21.3661017,36.0498305 21.820678,35.5952542 22.3830508,35.5952542 C22.9454237,35.5952542 23.4,36.0498305 23.4,36.6122034 L23.4,36.6122034 Z" id="Path"></path>
                </g>
            </g>
        </g>
    </g>
</svg>
