<?xml version="1.0" encoding="UTF-8" standalone="no"?>
<svg width="52px" height="50px" viewBox="0 0 52 50" version="1.1" xmlns="http://www.w3.org/2000/svg" xmlns:xlink="http://www.w3.org/1999/xlink" xmlns:sketch="http://www.bohemiancoding.com/sketch/ns">
    <!-- Generator: Sketch 3.2.2 (9983) - http://www.bohemiancoding.com/sketch -->
    <title>Fill 62</title>
    <desc>Created with Sketch.</desc>
    <defs></defs>
    <g id="Welcome" stroke="none" stroke-width="1" fill="none" fill-rule="evenodd" sketch:type="MSPage">
        <g id="KPCC-for-iPhone---Desktop" sketch:type="MSArtboardGroup" transform="translate(-694.000000, -1146.000000)" fill="#FFFFFF">
            <g id="Fill-62" sketch:type="MSLayerGroup" transform="translate(694.000000, 1146.000000)">
                <path d="M31.6168025,11.6869922 C31.6168025,8.60967689 29.0954089,6.10844664 25.997242,6.10844664 C22.8990751,6.10844664 20.3789061,8.60967689 20.3789061,11.6869922 C20.3789061,14.7594461 22.8990751,17.259461 25.997242,17.259461 C29.0954089,17.259461 31.6168025,14.7594461 31.6168025,11.6869922 L31.6168025,11.6869922 Z M22.215764,11.6869922 C22.215764,9.61600276 23.9130206,7.93150076 25.997242,7.93150076 C28.0839125,7.93150076 29.7799446,9.61600276 29.7799446,11.6869922 C29.7799446,13.7543356 28.0839125,15.4364069 25.997242,15.4364069 C23.9130206,15.4364069 22.215764,13.7543356 22.215764,11.6869922 L22.215764,11.6869922 Z M25.997242,33.8504688 C28.4500595,33.8504688 39.4552873,20.1386711 39.4552873,13.3605559 C39.4552873,5.99298655 33.4169232,0 25.997242,0 C18.5775608,0 12.5391968,5.99298655 12.5391968,13.3605559 C12.5391968,20.1386711 23.5456491,33.8504688 25.997242,33.8504688 L25.997242,33.8504688 Z M25.997242,1.82305411 C32.4054268,1.82305411 37.6184294,6.99809705 37.6184294,13.3605559 C37.6184294,19.3304504 28.1549377,30.5227873 25.997242,31.9447695 C23.8383217,30.5227873 14.3760546,19.3304504 14.3760546,13.3605559 C14.3760546,6.99809705 19.5890572,1.82305411 25.997242,1.82305411 L25.997242,1.82305411 Z M47.3954115,10.8787716 L42.5167171,9.36320592 C42.0317866,9.21371548 41.5162418,9.48231212 41.3656195,9.96238304 C41.2149971,10.442454 41.4831784,10.9529091 41.9681088,11.1036149 L46.2724791,12.4393059 L50.0294657,47.8697549 L39.4148764,45.0950665 L38.4486892,25.4364663 C38.4241977,24.9345188 38.0041696,24.537093 37.4861757,24.5966461 C36.9792029,24.6209535 36.5885644,25.0985936 36.6142805,25.6017566 L37.576794,45.1181585 L26.2066438,48.0921675 L26.2066438,38.7423306 C26.2066438,38.2391677 25.7939631,37.8308036 25.2882149,37.8308036 C24.7812421,37.8308036 24.369786,38.2391677 24.369786,38.7423306 L24.369786,47.7178337 L13.7576458,44.9443607 L14.7348542,26.4889762 C14.7617948,25.9870287 14.3736055,25.5580033 13.8666327,25.5312652 C13.3461896,25.4850811 12.927386,25.8910145 12.9004455,26.3941774 L11.8987456,45.2737258 L1.97236576,47.8697549 L5.73057695,12.4405213 L10.0018838,11.1157686 C10.4880388,10.9662782 10.7562201,10.4546076 10.6043731,9.97332136 C10.4537508,9.49325045 9.94432888,9.22343844 9.45450012,9.37535961 L4.60641993,10.8787716 C4.25619237,10.9857241 4.00515513,11.2907818 3.96596883,11.6529619 L0.00447870472,48.9927562 C-0.0249110211,49.2905217 0.0914233102,49.5846411 0.321642829,49.7791002 C0.550637776,49.9747747 0.86167904,50.0464815 1.15312715,49.9699132 L11.989364,47.1368871 C12.3120525,47.1368873 13.6376382,46.8889514 13.6376378,46.7977991 C13.6376373,46.7066467 24.369786,49.604087 24.369786,49.604087 C24.369786,49.604087 26.2103182,49.999084 26.1968472,49.9699132 C26.2103175,49.9674825 38.037233,46.8840903 38.037233,46.8840903 C38.1841816,47.0177809 38.9262722,47.0202117 39.0658734,46.8889518 L50.8487043,49.9699132 C50.9246278,49.9893591 51.0042249,49.9990821 51.081373,49.9990821 C51.2981222,49.9990821 51.5111977,49.9225138 51.6789641,49.7791002 C51.907959,49.5846411 52.0267425,49.2905217 51.9949036,48.9927562 L48.0370872,11.6529619 C48.0370872,11.6529619 47.7456391,10.9857241 47.3954115,10.8787716 Z" sketch:type="MSShapeGroup"></path>
            </g>
        </g>
    </g>
</svg>