<?xml version="1.0" encoding="UTF-8" standalone="no"?>
<svg width="59px" height="52px" viewBox="0 0 59 52" version="1.1" xmlns="http://www.w3.org/2000/svg" xmlns:xlink="http://www.w3.org/1999/xlink" xmlns:sketch="http://www.bohemiancoding.com/sketch/ns">
    <!-- Generator: Sketch 3.2.2 (9983) - http://www.bohemiancoding.com/sketch -->
    <title>Fill 168</title>
    <desc>Created with Sketch.</desc>
    <defs></defs>
    <g id="Welcome" stroke="none" stroke-width="1" fill="none" fill-rule="evenodd" sketch:type="MSPage">
        <g id="KPCC-for-iPhone---Desktop" sketch:type="MSArtboardGroup" transform="translate(-691.000000, -5540.000000)" fill="#FFFFFF">
            <g id="Section-Herald---Prototyping" sketch:type="MSLayerGroup" transform="translate(0.000000, 5480.000000)">
                <g id="Section-Heading-2" transform="translate(627.000000, 60.000000)" sketch:type="MSShapeGroup">
                    <path d="M89.5310506,11.7579312 C88.9558204,11.7579312 88.4889669,12.2194574 88.4889669,12.7881237 L88.4889669,29.7670708 C88.4889669,30.3357371 88.9558204,30.7972634 89.5310506,30.7972634 C90.1062808,30.7972634 90.5731343,30.3357371 90.5731343,29.7670708 L90.5731343,12.7881237 C90.5731343,12.2194574 90.1062808,11.7579312 89.5310506,11.7579312 L89.5310506,11.7579312 Z M93.7994254,15.6987611 C93.2241952,15.6987611 92.7573417,16.1602874 92.7573417,16.7289537 L92.7573417,29.7670708 C92.7573417,30.3357371 93.2241952,30.7972634 93.7994254,30.7972634 C94.3746556,30.7972634 94.8415091,30.3357371 94.8415091,29.7670708 L94.8415091,16.7289537 C94.8415091,16.1602874 94.3746556,15.6987611 93.7994254,15.6987611 L93.7994254,15.6987611 Z M85.2626757,15.5490398 C84.6860561,15.5490398 84.220592,16.0105661 84.220592,16.5792324 L84.220592,29.7670708 C84.220592,30.3357371 84.6860561,30.7972634 85.2626757,30.7972634 C85.8379059,30.7972634 86.3047594,30.3357371 86.3047594,29.7670708 L86.3047594,16.5792324 C86.3047594,16.0105661 85.8379059,15.5490398 85.2626757,15.5490398 L85.2626757,15.5490398 Z M101.091232,39.8986713 C100.681346,39.497583 100.022749,39.5003302 99.6184207,39.9041657 C99.2127028,40.3093748 99.2154817,40.96183 99.6239785,41.3615448 L110.185149,51.701931 C110.389398,51.9011015 110.653392,52 110.918776,52 C111.186939,52 111.456492,51.8983543 111.65935,51.695063 C112.065068,51.2898539 112.06229,50.6387722 111.652403,50.2390575 L101.091232,39.8986713 L101.091232,39.8986713 Z M85.9171043,39.8986713 L75.3517651,50.2376839 C74.9432683,50.6387722 74.9404894,51.2898539 75.3448178,51.695063 C75.5490662,51.8983543 75.8172291,52 76.085392,52 C76.350776,52 76.6147705,51.9011015 76.8190189,51.701931 L87.3829687,41.3629184 C87.792855,40.96183 87.7956338,40.3093748 87.3913054,39.9041657 C86.984198,39.5003302 86.3256011,39.497583 85.9171043,39.8986713 L85.9171043,39.8986713 Z M98.0650213,18.7742293 C97.4897911,18.7742293 97.0229376,19.234382 97.0229376,19.8044219 L97.0229376,29.7670708 C97.0229376,30.3357371 97.4897911,30.7972634 98.0650213,30.7972634 C98.6402515,30.7972634 99.107105,30.3357371 99.107105,29.7670708 L99.107105,19.8044219 C99.107105,19.234382 98.6402515,18.7742293 98.0650213,18.7742293 L98.0650213,18.7742293 Z M121.957916,35.3671976 L117.335233,35.3671976 L117.335233,2.06038513 L121.957916,2.06038513 C122.533147,2.06038513 123,1.59885886 123,1.03019257 C123,0.46152627 122.533147,0 121.957916,0 L65.0420837,0 C64.4668535,0 64,0.46152627 64,1.03019257 C64,1.59885886 64.4668535,2.06038513 65.0420837,2.06038513 L69.6703248,2.06038513 L69.6703248,35.3671976 L65.0420837,35.3671976 C64.4668535,35.3671976 64,35.8287239 64,36.3973902 C64,36.9660565 64.4668535,37.4275827 65.0420837,37.4275827 L121.957916,37.4275827 C122.533147,37.4275827 123,36.9660565 123,36.3973902 C123,35.8287239 122.533147,35.3671976 121.957916,35.3671976 L121.957916,35.3671976 Z M71.7544921,2.06038513 L115.251066,2.06038513 L115.251066,35.3671976 L71.7544921,35.3671976 L71.7544921,2.06038513 Z M80.991522,30.7972634 C81.5667522,30.7972634 82.0336057,30.3357371 82.0336057,29.7670708 L82.0336057,19.820905 C82.0336057,19.2522387 81.5667522,18.7907124 80.991522,18.7907124 C80.4162918,18.7907124 79.9494383,19.2522387 79.9494383,19.820905 L79.9494383,29.7670708 C79.9494383,30.3357371 80.4162918,30.7972634 80.991522,30.7972634 L80.991522,30.7972634 Z M81.7098651,16.1740233 L89.4851989,9.1467364 L97.3633516,16.7756558 C97.5592634,16.9652112 97.8218685,17.0709776 98.0928102,17.0709776 C98.1039258,17.0709776 98.1136519,17.0709776 98.123378,17.069604 C98.4068248,17.0627361 98.6735982,16.9418602 98.8653416,16.7330745 L105.409627,9.61100985 L105.413796,10.0011094 C105.420743,10.565655 105.886207,11.0189397 106.455879,11.0189397 L106.468384,11.0189397 C107.043614,11.0120717 107.50491,10.5450511 107.497963,9.97638482 L107.463227,6.96822252 C107.460448,6.68114219 107.336787,6.41054495 107.121423,6.21686874 C106.907449,6.02319254 106.621223,5.93390918 106.333608,5.95313945 L103.29906,6.20588002 C102.72522,6.25395568 102.300049,6.75394247 102.34868,7.31986158 C102.397311,7.88715429 102.910016,8.30472568 103.47413,8.25939721 L103.864564,8.22780463 L98.0497374,14.5559342 L90.238278,6.99157355 C89.8422862,6.60834192 89.2128677,6.5973532 88.8057603,6.96684893 L80.3037468,14.6534591 C79.8785766,15.0380643 79.8493983,15.689146 80.2370534,16.1094646 C80.626098,16.5297831 81.2860844,16.5558813 81.7098651,16.1740233 L81.7098651,16.1740233 Z M102.336175,15.575138 C101.760945,15.575138 101.294091,16.0366643 101.294091,16.6053306 L101.294091,29.7670708 C101.294091,30.3357371 101.760945,30.7972634 102.336175,30.7972634 C102.911405,30.7972634 103.378259,30.3357371 103.378259,29.7670708 L103.378259,16.6053306 C103.378259,16.0366643 102.911405,15.575138 102.336175,15.575138 L102.336175,15.575138 Z M106.60455,13.0339964 C106.02932,13.0339964 105.562466,13.4955226 105.562466,14.0641889 L105.562466,29.7670708 C105.562466,30.3357371 106.02932,30.7972634 106.60455,30.7972634 C107.17978,30.7972634 107.646634,30.3357371 107.646634,29.7670708 L107.646634,14.0641889 C107.646634,13.4955226 107.17978,13.0339964 106.60455,13.0339964 L106.60455,13.0339964 Z" id="Fill-168"></path>
                </g>
            </g>
        </g>
    </g>
</svg>