<?xml version="1.0" encoding="UTF-8" standalone="no"?>
<svg width="40px" height="59px" viewBox="0 0 40 59" version="1.1" xmlns="http://www.w3.org/2000/svg" xmlns:xlink="http://www.w3.org/1999/xlink" xmlns:sketch="http://www.bohemiancoding.com/sketch/ns">
    <!-- Generator: Sketch 3.2.2 (9983) - http://www.bohemiancoding.com/sketch -->
    <title>Fill 192</title>
    <desc>Created with Sketch.</desc>
    <defs></defs>
    <g id="Welcome" stroke="none" stroke-width="1" fill="none" fill-rule="evenodd" sketch:type="MSPage">
        <g id="KPCC-for-iPhone---Desktop" sketch:type="MSArtboardGroup" transform="translate(-700.000000, -3088.000000)" fill="#534FEF">
            <path d="M723.807839,3141.92582 L716.199609,3141.92582 C714.79316,3141.92582 713.649877,3143.06191 713.649877,3144.45727 C713.649877,3145.86016 714.79316,3147 716.199609,3147 L723.807839,3147 C725.210564,3147 726.352605,3145.86016 726.352605,3144.45727 C726.352605,3143.06191 725.210564,3141.92582 723.807839,3141.92582 L723.807839,3141.92582 Z M723.807839,3145.12114 L716.199609,3145.12114 C715.819756,3145.12114 715.511901,3144.82428 715.511901,3144.45727 C715.511901,3144.09779 715.819756,3143.80468 716.199609,3143.80468 L723.807839,3143.80468 C724.183968,3143.80468 724.490581,3144.09779 724.490581,3144.45727 C724.490581,3144.82428 724.183968,3145.12114 723.807839,3145.12114 L723.807839,3145.12114 Z M719.999379,3088 C708.972473,3088 700,3097.04233 700,3108.15642 C700,3114.45687 702.843931,3120.2638 707.806846,3124.11422 C707.855259,3124.16432 707.909878,3124.20941 707.970704,3124.24824 C708.022841,3124.28332 708.072495,3124.32465 708.199112,3124.42486 C709.69618,3125.6123 711.441517,3128.10492 711.441517,3131.22007 L711.441517,3132.70437 C711.441517,3133.22294 711.859852,3133.6438 712.372529,3133.6438 L727.627471,3133.6438 C728.142631,3133.6438 728.559724,3133.22294 728.559724,3132.70437 L728.559724,3131.22007 C728.559724,3127.58761 730.697328,3125.16137 731.961022,3124.2996 C732.000745,3124.27329 732.036744,3124.24323 732.07026,3124.21192 C737.11138,3120.36401 740,3114.51699 740,3108.15642 C740,3097.04233 731.027527,3088 719.999379,3088 L719.999379,3088 Z M730.878565,3122.76645 C730.86491,3122.77647 730.850014,3122.78774 730.836359,3122.80027 C728.762064,3124.25826 726.6977,3127.40222 726.6977,3131.22007 L726.6977,3131.76494 L720.932874,3131.76494 L720.932874,3113.5237 C722.66828,3113.09783 723.966732,3111.52585 723.966732,3109.64448 C723.966732,3107.43745 722.186637,3105.64251 720.001862,3105.64251 C717.814604,3105.64251 716.035751,3107.43745 716.035751,3109.64448 C716.035751,3111.52585 717.332961,3113.09783 719.07085,3113.5237 L719.07085,3131.76494 L713.303541,3131.76494 L713.303541,3131.22007 C713.303541,3127.43103 711.174627,3124.39605 709.404463,3122.99442 C709.385842,3122.97688 709.287776,3122.89672 709.267914,3122.88043 C709.221984,3122.84536 709.177296,3122.81154 709.133848,3122.77772 C709.10778,3122.75392 709.08047,3122.73012 709.050678,3122.70883 C704.483754,3119.21791 701.862024,3113.91325 701.862024,3108.15642 C701.862024,3098.07821 709.999069,3089.87886 719.999379,3089.87886 C729.99969,3089.87886 738.137976,3098.07821 738.137976,3108.15642 C738.137976,3113.95208 735.491419,3119.27552 730.878565,3122.76645 L730.878565,3122.76645 Z M720.001862,3111.76634 C718.8412,3111.76634 717.897775,3110.81564 717.897775,3109.64448 C717.897775,3108.47458 718.8412,3107.52137 720.001862,3107.52137 C721.160041,3107.52137 722.104708,3108.47458 722.104708,3109.64448 C722.104708,3110.81564 721.160041,3111.76634 720.001862,3111.76634 L720.001862,3111.76634 Z M725.828756,3134.81746 L714.170003,3134.81746 C712.766037,3134.81746 711.621513,3135.9548 711.621513,3137.35142 C711.621513,3138.74929 712.766037,3139.88788 714.170003,3139.88788 L725.828756,3139.88788 C727.235205,3139.88788 728.38097,3138.74929 728.38097,3137.35142 C728.38097,3135.9548 727.235205,3134.81746 725.828756,3134.81746 L725.828756,3134.81746 Z M725.828756,3138.00902 L714.170003,3138.00902 C713.798839,3138.00902 713.483537,3137.70715 713.483537,3137.35142 C713.483537,3136.99569 713.798839,3136.69633 714.170003,3136.69633 L725.828756,3136.69633 C726.203643,3136.69633 726.518946,3136.99569 726.518946,3137.35142 C726.518946,3137.71342 726.20985,3138.00902 725.828756,3138.00902 L725.828756,3138.00902 Z" id="Fill-192" sketch:type="MSShapeGroup"></path>
        </g>
    </g>
</svg>
